<svg id="Logo" xmlns="http://www.w3.org/2000/svg" viewBox="0 0 416.18 438.02"><defs><style>.cls-1{fill:#fff;}</style></defs><g id="Amor-proprio"><path class="cls-1" d="M414.69,191.34c-.62-3.19-1.59-4.53-3.39-5.84a1.32,1.32,0,0,0-.83-.31l-.19,0C341.92,174,299.86,200,276,225.28c11.7-22.88,18.3-51.33,18.3-81.64,0-74-40.23-134.17-89.67-134.17-17,0-33.19,6.91-47.19,19.85C141.1,42.41,96.83,83.82,83.62,156.1a.93.93,0,0,1,0,.23c-2.59,9-2.9,29.09-2.9,29.09a208,208,0,0,0,20.81,99c-63.13,5-88.64-13.91-94.44-18a4.06,4.06,0,0,0-1.22-.77,1.67,1.67,0,0,0-1.59.68c-1.43,2-4.6,5.92-2.59,13.57C17.51,328,56.08,391,132.75,419c0,0,1.78.79,5.08,1.95,17.45,6.23,78,23.58,148.62-5.2l.22-.06c9-2.67,26.09-13.19,26.09-13.19C407.82,346.4,424.57,241.8,414.69,191.34ZM159.26,48.43C172.32,32.57,188.16,24,204.58,24c41.45,0,75.18,53.69,75.18,119.68,0,39.11-12.3,75.61-32.18,97.87-7-22.3-17.29-36-17.43-36.24-12-17.55-34-34.18-50.81-62.79a147.79,147.79,0,0,1-13.07-28.08S154.58,89.7,159.26,48.43ZM96.64,157a223.51,223.51,0,0,1,7.89-30,189.66,189.66,0,0,1,40.85-69.34c.67-.73,1.35-1.45,2-2.14-5.32,28.58.85,64.73,17.85,92.18C179.73,171,189.65,184,206.53,203c2.38,3.19,40.91,41.76,31.86,99-3.31,20.85-12.92,44.18-32.94,69.2a210.67,210.67,0,0,1-21.12-12.16c-17.21-11.26-40.77-30.19-59.53-58.78l0,0a181.37,181.37,0,0,1-10-17.21C98.55,251.34,89,210,96.64,157Zm-77,134.35a185.46,185.46,0,0,0,83.46,8.41c2-.23,4.06-.54,6.19-.74,23.92,40.66,58.33,68.57,85.72,81.9-14.2,12.88-31.3,21.31-53,28.16C80.29,387.42,35.89,336.09,19.64,291.32Zm260.53,113a221.59,221.59,0,0,1-29.52,9.5,190.47,190.47,0,0,1-80.44,2.8c-1-.17-2-.37-2.9-.56,27-10.89,54.14-35.51,68.16-64.6a2,2,0,0,1,.21-.41c4.49-9.42,8.11-17.48,11.24-25.2A375.76,375.76,0,0,0,260,286.87c1.88-5.05,23.21-102.34,142.41-89.48C404.42,217,416.27,343,280.17,404.27Z"/></g></svg>